<mxfile host="app.diagrams.net" modified="2022-03-09T22:32:12.467Z" agent="5.0 (Windows)" etag="tQfzGS4pTsY1nvcKz8Kr" version="17.0.0" type="github">
  <diagram id="04PN-S8R5cCTrcY-oaSo" name="Page-1">
    <mxGraphModel dx="1085" dy="563" grid="1" gridSize="10" guides="1" tooltips="1" connect="1" arrows="1" fold="1" page="1" pageScale="1" pageWidth="850" pageHeight="1100" math="0" shadow="0">
      <root>
        <mxCell id="0" />
        <mxCell id="1" parent="0" />
        <mxCell id="Y653dRkqH0_Y54hOL5ni-5" value="&lt;div&gt;1. Move&lt;/div&gt;" style="ellipse;whiteSpace=wrap;html=1;aspect=fixed;fontSize=24;strokeWidth=3;" vertex="1" parent="1">
          <mxGeometry x="250" y="150" width="150" height="150" as="geometry" />
        </mxCell>
        <mxCell id="Y653dRkqH0_Y54hOL5ni-22" style="edgeStyle=orthogonalEdgeStyle;rounded=0;orthogonalLoop=1;jettySize=auto;html=1;exitX=1;exitY=0.25;exitDx=0;exitDy=0;entryX=0;entryY=0.5;entryDx=0;entryDy=0;strokeWidth=3;" edge="1" parent="1" source="Y653dRkqH0_Y54hOL5ni-20" target="Y653dRkqH0_Y54hOL5ni-5">
          <mxGeometry relative="1" as="geometry" />
        </mxCell>
        <mxCell id="Y653dRkqH0_Y54hOL5ni-23" style="edgeStyle=orthogonalEdgeStyle;rounded=0;orthogonalLoop=1;jettySize=auto;html=1;exitX=1;exitY=0.75;exitDx=0;exitDy=0;entryX=0;entryY=0.5;entryDx=0;entryDy=0;strokeWidth=3;" edge="1" parent="1" source="Y653dRkqH0_Y54hOL5ni-20" target="Y653dRkqH0_Y54hOL5ni-21">
          <mxGeometry relative="1" as="geometry" />
        </mxCell>
        <mxCell id="Y653dRkqH0_Y54hOL5ni-20" value="&lt;font style=&quot;font-size: 24px&quot;&gt;Player&lt;/font&gt;" style="rounded=1;whiteSpace=wrap;html=1;strokeWidth=3;" vertex="1" parent="1">
          <mxGeometry x="40" y="275" width="120" height="60" as="geometry" />
        </mxCell>
        <mxCell id="Y653dRkqH0_Y54hOL5ni-21" value="&lt;div&gt;2. Bare Handed Combat&lt;br&gt;&lt;/div&gt;" style="ellipse;whiteSpace=wrap;html=1;aspect=fixed;fontSize=24;strokeWidth=3;" vertex="1" parent="1">
          <mxGeometry x="250" y="310" width="150" height="150" as="geometry" />
        </mxCell>
        <mxCell id="Y653dRkqH0_Y54hOL5ni-24" value="&lt;div style=&quot;font-size: 16px&quot;&gt;&lt;font style=&quot;font-size: 16px&quot;&gt;&lt;span style=&quot;background-color: rgb(255 , 255 , 255)&quot;&gt;Player&lt;/span&gt;&lt;/font&gt;&lt;/div&gt;&lt;div style=&quot;font-size: 16px&quot;&gt;&lt;font style=&quot;font-size: 16px&quot;&gt;&lt;span style=&quot;background-color: rgb(255 , 255 , 255)&quot;&gt;Inputs&lt;/span&gt;&lt;/font&gt;&lt;br&gt;&lt;/div&gt;" style="text;html=1;align=center;verticalAlign=middle;resizable=0;points=[];autosize=1;strokeColor=none;fillColor=none;" vertex="1" parent="1">
          <mxGeometry x="170" y="289" width="60" height="30" as="geometry" />
        </mxCell>
      </root>
    </mxGraphModel>
  </diagram>
</mxfile>
